HIERARCHY
ROOT hip
{
  OFFSET 0.0 0.0 0.0
  CHANNELS 6 Xposition Yposition Zposition Zrotation Yrotation Xrotation
  JOINT torso
  {
    OFFSET 0.0 0.0 0.0
    CHANNELS 3 Zrotation Xrotation Yrotation
    JOINT neck
    {
      OFFSET -20.11218299999996 327.95800799999995 66.30578600000035
      CHANNELS 3 Zrotation Xrotation Yrotation
      JOINT head
      {
        OFFSET 18.28939800000012 288.83178699999996 217.81652800000006
        CHANNELS 3 Zrotation Xrotation Yrotation
        End Site
        {
          OFFSET 0.0 0.0 0.0
        }
      }
    }
    JOINT left_collar
    {
      OFFSET -20.11218299999996 327.95800799999995 66.30578600000035
      CHANNELS 3 Zrotation Xrotation Yrotation
      JOINT left_upper_arm
      {
        OFFSET -127.08163400000001 -16.17407199999991 15.44799799999987
        CHANNELS 3 Zrotation Xrotation Yrotation
        JOINT left_forearm
        {
          OFFSET -234.267792 45.78796399999999 109.31286600000021
          CHANNELS 3 Zrotation Xrotation Yrotation
          JOINT left_hand
          {
            OFFSET -259.114014 -33.25433399999997 16.18847699999992
            CHANNELS 3 Zrotation Xrotation Yrotation
            End Site
            {
              OFFSET 0.0 0.0 0.0
            }
          }
        }
      }
    }
    JOINT right_collar
    {
      OFFSET -20.11218299999996 327.95800799999995 66.30578600000035
      CHANNELS 3 Zrotation Xrotation Yrotation
      JOINT right_upper_arm
      {
        OFFSET 164.513184 1.5733030000000099 4.892333999999892
        CHANNELS 3 Zrotation Xrotation Yrotation
        JOINT right_forearm
        {
          OFFSET 260.742027 48.718444999999974 144.35229500000014
          CHANNELS 3 Zrotation Xrotation Yrotation
          JOINT right_hand
          {
            OFFSET 287.85150899999996 -44.57171600000015 13.96813899999961
            CHANNELS 3 Zrotation Xrotation Yrotation
            End Site
            {
              OFFSET 0.0 0.0 0.0
            }
          }
        }
      }
    }
  }
}
MOTION
Frames: 14
Frame Time: 0.01
-335.72496386789123 194.49653038062166 779.5925560684611 9.596605723215212 -26.038809304588433 -44.193902527038176 0.738064322580705 0.4432750428312412 -0.11932329617832653 -5.127147709645513 7.4549944594429896 3.229124709036137 0.0 0.0 0.0 5.451452773543915 -0.020290507071673118 3.9064299833721137 9.469154205287378 -5.6762542347404565 -66.50881177869257 -13.867656119567775 -0.8294109367023168 -4.505670790914879 0.0 0.0 0.0 -0.2773694923589455 0.010770901466881273 -0.3533074839799211 -42.91231326807639 53.40967723588386 67.26314328810777 -4.869827992312302 3.2083283647902543 14.770289296612287 0.0 0.0 0.0
-335.8089242139473 194.43802355828373 779.4399211951387 9.606068752996912 -26.056192182624727 -44.20772061312656 0.7375552157743989 0.4438066155744094 -0.11918622852422917 -5.127090627202575 7.459185880578219 3.2286978060700533 0.0 0.0 0.0 5.43843671598784 -0.02318518108882194 3.9164247626672997 9.462169097748284 -5.690684562128127 -66.52070949248113 -13.882102242775668 -0.8308768055324075 -4.504656445503405 0.0 0.0 0.0 -0.28416046002964823 0.010963728343335751 -0.35497968347457276 -42.88174130103081 53.402203121514184 67.31049713250991 -4.855476147354168 3.2057714296614113 14.770772314082588 0.0 0.0 0.0
-335.89399847949994 194.3808147417506 779.2893141946553 9.617999796221548 -26.07338803420868 -44.220738561912164 0.7342393878554393 0.4438435183438032 -0.11852517708927135 -5.125842487832413 7.462894056830774 3.2274464552450137 0.0 0.0 0.0 5.429885237066819 -0.02552251702912573 3.925484860753294 9.451857426873207 -5.710363915160017 -66.53229387982513 -13.894642310396218 -0.8321448475357679 -4.504480991784909 0.0 0.0 0.0 -0.290597655341805 0.011152276171913826 -0.3574118125902344 -42.852251976375626 53.39601571757625 67.35749613546903 -4.840846494707821 3.2026060599738533 14.768528360353708 0.0 0.0 0.0
-335.9798480650464 194.32513807757041 779.1406018575061 9.632491347950658 -26.09045126836903 -44.23277659643033 0.7280305765197651 0.4434528599970721 -0.11731844356105858 -5.123345913666786 7.466200819565031 3.2253213409512163 0.0 0.0 0.0 5.4253446054253915 -0.027297730776034236 3.9333484450040404 9.438534457005506 -5.734731258205283 -66.54334776877779 -13.905431214158849 -0.8332305461570487 -4.505221928339027 0.0 0.0 0.0 -0.29660445675388125 0.011334901104085431 -0.3606754416183778 -42.82490336921079 53.391584709933255 67.4027599767611 -4.82628812240457 3.198971375485975 14.763917016210648 0.0 0.0 0.0
-336.0660706977937 194.2712013589537 778.9936380723399 9.649553519451622 -26.10744623239731 -44.243700833649974 0.7189401127864039 0.44272267895862893 -0.11556225490877423 -5.119572269698609 7.469202391658382 3.2222927882504213 0.0 0.0 0.0 5.424300102889623 -0.02852638214785274 3.939841376594102 9.422565351759973 -5.763163572733663 -66.55372344672135 -13.914658574383692 -0.8341531082460397 -4.506910897252851 0.0 0.0 0.0 -0.3021068215897364 0.011509721005843099 -0.36479625698509627 -42.800698050050045 53.389349654789626 67.44496958084171 -4.8121542711954515 3.195013103514529 14.757327731446566 0.0 0.0 0.0
-336.15221466991505 194.21917988816602 778.8482685542975 9.66911339698682 -26.12444726805559 -44.25342225812316 0.7070759068325567 0.44176042733770937 -0.11327069184897368 -5.114521942760445 7.472008000085488 3.2183510973575973 0.0 0.0 0.0 5.426204010718509 -0.02924167718961877 3.9448759937220856 9.404343237070181 -5.7950105056516925 -66.56334085035259 -13.92253728983112 -0.8349342828606002 -4.509536100570249 0.0 0.0 0.0 -0.3070366491181368 0.011674734645579095 -0.36975580770861183 -42.78055480749918 53.38970747603609 67.48290545171564 -4.798790212159905 3.19087846602359 14.749166167826814 0.0 0.0 0.0
-336.2377954443746 194.16921087307134 778.7043361871408 9.691016763599922 -26.14153845030305 -44.26189304817236 0.6926383007279752 0.44069043411968817 -0.11047507209768594 -5.108223653715213 7.474738381129926 3.2135061837024557 0.0 0.0 0.0 5.430500052638822 -0.029491396840665762 3.9484455915383347 9.38426943828705 -5.829625092162321 -66.57218358186681 -13.929292993111668 -0.8355972793126031 -4.513045601318398 0.0 0.0 0.0 -0.31133510464318426 0.011827952362263723 -0.37549576330660744 -42.7652835509985 53.39300119161254 67.51548201076687 -4.786521622863563 3.186711286940537 14.739840947665773 0.0 0.0 0.0
-336.3223140047871 194.12138866833385 778.5616865793894 9.71503209761273 -26.15881282717987 -44.269100663942915 0.6759129995435358 0.43965035671331737 -0.10722282435685021 -5.100732913114078 7.477524058491125 3.207786614406583 0.0 0.0 0.0 5.4366438584807035 -0.029334571908690314 3.9506152064609923 9.362736324758991 -5.86638988747899 -66.58029304450861 -13.935154618043718 -0.8361658013924423 -4.517351355195967 0.0 0.0 0.0 -0.31495572533697686 0.011967529332543931 -0.3819243261133236 -42.75556393323685 53.39951022517397 67.54177715207393 -4.7756439325524935 3.182647498654642 14.729751253659956 0.0 0.0 0.0
-336.4052761927518 194.0757611637732 778.4201733747442 9.740856685703701 -26.176370968374602 -44.27506028763233 0.6572614232602726 0.4387866710656208 -0.10357591122096597 -5.09212978744029 7.480503255642066 3.201238175154582 0.0 0.0 0.0 5.444119263464154 -0.028838045509662683 3.951509561661277 9.340113048182957 -5.904738096301798 -66.58776106541524 -13.940346224329991 -0.8366632087453095 -4.522333807949147 0.0 0.0 0.0 -0.3178671404480204 0.012091892579248177 -0.38892425716528184 -42.75192811642266 53.40944261410042 67.56105637091079 -4.766413056189209 3.1788111950748674 14.719275645053322 0.0 0.0 0.0
-336.4862121794355 194.03232759540512 778.279662843647 9.768124599493861 -26.194318641837256 -44.27980635614095 0.6371089607502377 0.438249295891921 -0.0996088835678969 -5.08251620160789 7.4838193143177865 3.193922143132845 0.0 0.0 0.0 5.4524504930638065 -0.028073085018477845 3.9512992464497922 9.316734312556253 -5.944169551055483 -66.59472143998151 -13.945080164986194 -0.8371118110572449 -4.527846889638189 0.0 0.0 0.0 -0.3200552610680599 0.012199853430240357 -0.39636181241531065 -42.75474799263004 53.42292935220538 67.572790953803 -4.759037871867263 3.1753113469339014 14.708762381834461 0.0 0.0 0.0
-336.5646951845294 193.99103800407758 778.140037321358 9.796416195201994 -26.2127634932187 -44.28338400549922 0.6159317278328644 0.43818550588782895 -0.09540666980986368 -5.072013040668801 7.487617534221889 3.185913464925409 0.0 0.0 0.0 5.461210487367415 -0.027112215761848617 3.9501863274342806 9.292892170227539 -5.984261642123369 -66.60134087337256 -13.94955162506122 -0.8375322960038537 -4.5337232436310035 0.0 0.0 0.0 -0.3215248286230298 0.012290698393877001 -0.40409579414697827 -42.76422705197573 53.44002101952379 67.57666986601245 -4.753674710279971 3.172239260645952 14.698521472818065 0.0 0.0 0.0
-336.64035859790215 193.951794488953 778.0011971457599 9.825268733309269 -26.23181071334935 -44.28584121338059 0.5942424935875142 0.43873336565381843 -0.09106221233517485 -5.060757302709381 7.492041419974368 3.177299023779183 0.0 0.0 0.0 5.470025775640268 -0.026026437149884726 3.948390561899581 9.268830709971681 -6.024675523150312 -66.60780979568042 -13.953934508304402 -0.8379432878060598 -4.5397795449193366 0.0 0.0 0.0 -0.32230025595620326 0.012364253475191706 -0.4119859486473294 -42.78039697537295 53.46068676897046 67.57260514711315 -4.750424017581731 3.1696668225381144 14.68881857284528 0.0 0.0 0.0
-336.7129107615465 193.91445430188367 777.8630608713352 9.854187706676441 -26.25155782882887 -44.28722227365914 0.5725764128601565 0.44001499947268324 -0.08667405521390326 -5.048899487271134 7.497228405495682 3.168176123694703 0.0 0.0 0.0 5.478578407629367 -0.02488294522533349 3.9461371855099365 9.244743399728577 -6.065158080455559 -66.61433348044542 -13.958378603095621 -0.8383610297127864 -4.545821786378519 0.0 0.0 0.0 -0.32242574378994227 0.01242091956253024 -0.4199000920127158 -42.803118921421095 53.4848156709495 67.56073081396893 -4.749329232378278 3.1676455279655835 14.679870752836836 0.0 0.0 0.0
-336.782146806815 193.87883471442314 777.7255636744006 9.882658516185792 -26.27208890348113 -44.28756300303224 0.5514770927626647 0.44213008074512133 -0.08234396379079847 -5.03660129632502 7.503305204642454 3.1586512325169074 0.0 0.0 0.0 5.486605479063012 -0.02374343072955922 3.943646920966338 9.220772776021622 -6.105540255349929 -66.62112380737565 -13.963007922994386 -0.8387991809522597 -4.551650440123675 0.0 0.0 0.0 -0.3219646968951683 0.012461679065088282 -0.427719579399958 -42.83208939100649 53.51222036154167 67.54139544227776 -4.750377799150164 3.1662062571375706 14.671844078112679 0.0 0.0 0.0
